{"title":"Cats &amp; Dogs.The.Revenge.of.Kitty.Galore.2010.DvDRip.Feel-Free ","uid":5903704,"size":889109746,"categoryP":"video","categoryS":"movies","magnet":"?xt=urn:btih:a774fd353baaeee33c3828d228f67ac39f873f43&amp;dn=Cats+%26+Dogs.The.Revenge.of.Kitty.Galore.2010.DvDRip.Feel-Free+&amp;tr=udp%3A%2F%2Ftracker.openbittorrent.com%3A80&amp;tr=udp%3A%2F%2Fopen.demonii.com%3A1337&amp;tr=udp%3A%2F%2Ftracker.coppersurfer.tk%3A6969&amp;tr=udp%3A%2F%2Fexodus.desync.com%3A6969","seeders":0,"leechers":1,"uploader":"HeroMaster","files":-1,"time":1287769813,"description":"Cats &amp; Dogs.The.Revenge.of.Kitty.Galore.2010.DvDRip.Feel-Free \n\n\nGenre:Action | Comedy | Family\nLanguage:English\nIMDb:http://www.imdb.com/title/tt1287468/\nSource:DVD PAL\nSubtitles:Romana\n\nGeneral\nComplete name :Cats&amp;Dogs.The.Revenge.of.Kitty.Galore.2010.DvDRip.Ac3.Feel-Free\nFormat : AVI\nFormat/Info : Audio Video Interleave\nFile size : 847 MiB\nDuration : 1h 22mn\nOverall bit rate : 1 438 Kbps\nVideo #0\nMuxing mode : Packed bitstream\nCodec ID : XVID\nCodec ID/Hint : XviD\nDuration : 1h 22mn\nBit rate : 981 Kbps\nWidth : 720 pixels\nHeight : 400 pixels\nDisplay aspect ratio : 16:9\nFrame rate : 23.976 fps\nResolution : 24 bits\nColorimetry : 4:2:0\nScan type : Progressive\nBits/(Pixel*Frame) : 0.142\nStream size : 578 MiB (68%)\nWriting library : XviD 1.3.0.dev55\nAudio #1\nID : 1\nFormat : AC-3\nFormat/Info : Audio Coding 3\nCodec ID : 2000\nDuration : 1h 22mn\nBit rate mode : Constant\nBit rate : 448 Kbps\nChannel(s) : 6 channels\nChannel positions : Front: L C R, Surround: L R, LFE\nSampling rate : 48.0 KHz\nStream size : 264 MiB (31%)\nAlignment : Split accross interleaves\nInterleave, duration : 42 ms (1.00 video frame)\nInterleave, preload duration : 500 ms\n\nPlot:\nThe ongoing war between the canine and feline species is put on hold when they join forces to thwart a rogue cat spy with her own sinister plans for conquest.\n\n\nScreenshots:\n\n &lt;a href=&quot;\nhttp://www.postimg.com/image/23000/22880.jpg&quot; rel=&quot;nofollow&quot; target=&quot;_NEW&quot;&gt;\nhttp://www.postimg.com/image/23000/22880.jpg&lt;/a&gt;\n &lt;a href=&quot;\nhttp://www.postimg.com/image/23000/22881.jpg&quot; rel=&quot;nofollow&quot; target=&quot;_NEW&quot;&gt;\nhttp://www.postimg.com/image/23000/22881.jpg&lt;/a&gt;\n\n\nENJOY!","torrent":{"xt":"urn:btih:a774fd353baaeee33c3828d228f67ac39f873f43","amp;dn":"Cats+%26+Dogs.The.Revenge.of.Kitty.Galore.2010.DvDRip.Feel-Free+","amp;tr":["udp%3A%2F%2Ftracker.openbittorrent.com%3A80","udp%3A%2F%2Fopen.demonii.com%3A1337","udp%3A%2F%2Ftracker.coppersurfer.tk%3A6969","udp%3A%2F%2Fexodus.desync.com%3A6969"],"infoHash":"a774fd353baaeee33c3828d228f67ac39f873f43","infoHashBuffer":{"type":"Buffer","data":[167,116,253,53,59,170,238,227,60,56,40,210,40,246,122,195,159,135,63,67]},"announce":[],"urlList":[]}}